<svg xmlns="http://www.w3.org/2000/svg" width="22" height="22" viewBox="0 0 24 24" fill="none">
  <path d="M16.5 5c1.6.3 2.8.7 3.1.8l.1.4c-.5.58-.93 1.13-1.25 1.64.84.39 1.45.95 1.81 1.68-.37 3.63-1.9 6.94-4.8 9.88h-.44c-.32-.4-.61-.82-.88-1.25-.88.34-1.84.52-2.95.52-1.1 0-2.07-.18-2.93-.52a16.9 16.9 0 01-.9 1.25h-.43c-2.95-2.94-4.48-6.25-4.85-9.88.36-.73.98-1.29 1.84-1.68-.34-.51-.74-1.06-1.2-1.64l.1-.4C5.21 5.72 6.42 5.3 8 5l.67 1.02A11 11 0 0112 5.6c1.28 0 2.54.2 3.83.62L16.5 5zM9 13.5a1.25 1.25 0 100-2.5 1.25 1.25 0 000 2.5zm3 0a1.25 1.25 0 100-2.5 1.25 1.25 0 000 2.5z" fill="currentColor"/>
</svg>
